<svg width="189" height="179" viewBox="0 0 189 179" fill="none" xmlns="http://www.w3.org/2000/svg">
<path d="M55 40C52.6356 29.5241 67.1993 27.891 77 23.5C95.1759 15.3568 110.3 14.3674 128 23.5C138.436 28.8848 151.066 32.3051 150 44C148.874 56.3537 122 59 122 59L65 51C65 51 56.2781 45.6631 55 40Z" fill="#EBA3A3"/>
<path d="M77 31.5H64.5H70.75V38.5M77 31.5H84.5M77 31.5V38.5M92 29H101.5M92 36.5H101.5M113 32.5C113 29 114.817 26.8917 118.5 27C122.019 27.1035 123.5 32.5 123.5 32.5C123.5 32.5 119.053 32.5 113 32.5ZM113 32.5C113 35.5 112.67 36.6899 115.5 38.5C118.97 40.7194 123.5 36.5 123.5 36.5" stroke="black"/>
<path d="M46 170C14 147.5 19 73 34 49C46.041 29.7344 69.7763 49.9206 94.5 49C141 41 176.924 34.2009 176.924 34.2009C165.562 84.3376 161.91 92.9686 170.816 111.612C179.721 130.255 180.018 153.127 165.004 165.632C142.726 184.187 59.7633 179.677 46 170Z" fill="#D9E39C"/>
<path d="M73 78.5V60.0576L44 89L30 126.5L0 102.5L4.5 51.5L44 18L92 0H151L189 28.5576L181 72.3096L167.5 60.0576L151 72.3096L142 60.0576L99.5 78.5V60.0576L73 78.5Z" fill="black"/>
<path d="M94 112.619C94 125.086 87.4588 127 82.7784 127C78.098 127 72 125.933 72 111.589C72 97.2454 72.494 91 82.7784 91C93.0627 91 94 98.2749 94 112.619Z" fill="black"/>
<path d="M140 104.712C140 116.656 133.756 120 129.288 120C124.821 120 119 117.469 119 103.726C119 89.9835 119.472 84 129.288 84C139.105 84 140 90.9698 140 104.712Z" fill="black"/>
<path d="M83 141.998L145.381 134C145.381 134 145.381 153.194 128.853 161.192C87.7985 164.924 83 141.998 83 141.998Z" fill="black"/>
</svg>
